<svg width="110" height="103" viewBox="0 0 110 103" fill="none" xmlns="http://www.w3.org/2000/svg">
<g id="car-solid 1">
<path id="Vector" d="M29.0469 22.2227L23.4395 38.25H86.5605L80.9531 22.2227C79.9863 19.4727 77.3867 17.625 74.4648 17.625H35.5352C32.6133 17.625 30.0137 19.4727 29.0469 22.2227ZM8.50781 39.2813L16.0703 17.6895C18.9707 9.41797 26.7695 3.875 35.5352 3.875H74.4648C83.2305 3.875 91.0293 9.41797 93.9297 17.6895L101.492 39.2813C106.477 41.3438 110 46.2637 110 52V82.9375V93.25C110 97.0527 106.928 100.125 103.125 100.125H96.25C92.4473 100.125 89.375 97.0527 89.375 93.25V82.9375H20.625V93.25C20.625 97.0527 17.5527 100.125 13.75 100.125H6.875C3.07227 100.125 0 97.0527 0 93.25V82.9375V52C0 46.2637 3.52344 41.3438 8.50781 39.2813ZM27.5 58.875C27.5 57.0516 26.7757 55.303 25.4864 54.0136C24.197 52.7243 22.4484 52 20.625 52C18.8016 52 17.053 52.7243 15.7636 54.0136C14.4743 55.303 13.75 57.0516 13.75 58.875C13.75 60.6984 14.4743 62.447 15.7636 63.7364C17.053 65.0257 18.8016 65.75 20.625 65.75C22.4484 65.75 24.197 65.0257 25.4864 63.7364C26.7757 62.447 27.5 60.6984 27.5 58.875ZM89.375 65.75C91.1984 65.75 92.947 65.0257 94.2364 63.7364C95.5257 62.447 96.25 60.6984 96.25 58.875C96.25 57.0516 95.5257 55.303 94.2364 54.0136C92.947 52.7243 91.1984 52 89.375 52C87.5516 52 85.803 52.7243 84.5136 54.0136C83.2243 55.303 82.5 57.0516 82.5 58.875C82.5 60.6984 83.2243 62.447 84.5136 63.7364C85.803 65.0257 87.5516 65.75 89.375 65.75Z" fill="black"/>
</g>
</svg>
