<svg width="101" height="83" viewBox="0 0 101 83" fill="none" xmlns="http://www.w3.org/2000/svg">
<path id="Vector" d="M25.8887 0C28.6364 0 31.2714 1.09308 33.2143 3.03877C35.1572 4.98446 36.2486 7.62338 36.2486 10.375C36.2486 13.1266 35.1572 15.7655 33.2143 17.7112C31.2714 19.6569 28.6364 20.75 25.8887 20.75C23.1411 20.75 20.506 19.6569 18.5632 17.7112C16.6203 15.7655 15.5288 13.1266 15.5288 10.375C15.5288 7.62338 16.6203 4.98446 18.5632 3.03877C20.506 1.09308 23.1411 0 25.8887 0ZM14.2339 77.8125V64.8438H11.3525C9.58809 64.8438 8.34166 63.1092 8.89203 61.4232L13.9263 46.2822L9.29672 52.41C7.56467 54.6957 4.31102 55.1334 2.04479 53.415C-0.221439 51.6967 -0.674684 48.4383 1.04117 46.1525L10.5755 33.5566C14.2015 28.7582 19.8832 25.9375 25.8887 25.9375C31.8942 25.9375 37.576 28.7582 41.202 33.5566L50.7363 46.1525C52.4684 48.4383 52.0151 51.6967 49.7327 53.415C47.4503 55.1334 44.1966 54.6957 42.4808 52.41L37.8512 46.2822L42.8854 61.4232C43.452 63.1092 42.1894 64.8438 40.425 64.8438H37.5436V77.8125C37.5436 80.6818 35.2288 83 32.3637 83C29.4985 83 27.1837 80.6818 27.1837 77.8125V64.8438H24.5938V77.8125C24.5938 80.6818 22.279 83 19.4138 83C16.5486 83 14.2339 80.6818 14.2339 77.8125ZM77.6882 0C80.4358 0 83.0709 1.09308 85.0138 3.03877C86.9566 4.98446 88.0481 7.62338 88.0481 10.375C88.0481 13.1266 86.9566 15.7655 85.0138 17.7112C83.0709 19.6569 80.4358 20.75 77.6882 20.75C74.9406 20.75 72.3055 19.6569 70.3627 17.7112C68.4198 15.7655 67.3283 13.1266 67.3283 10.375C67.3283 7.62338 68.4198 4.98446 70.3627 3.03877C72.3055 1.09308 74.9406 0 77.6882 0ZM76.3932 62.25V77.8125C76.3932 80.6818 74.0785 83 71.2133 83C68.3481 83 66.0333 80.6818 66.0333 77.8125V48.7139L63.9452 52.0371C62.4236 54.4688 59.2185 55.182 56.8066 53.6582C54.3946 52.1344 53.6662 48.9246 55.1878 46.5092L63.5567 33.2C66.4057 28.6771 71.3752 25.9213 76.7008 25.9213H78.6918C84.0337 25.9213 89.0032 28.6609 91.836 33.2L100.205 46.5254C101.726 48.957 100.998 52.1506 98.5861 53.6744C96.1742 55.1982 92.9691 54.4688 91.4475 52.0533L89.3431 48.7139V77.8125C89.3431 80.6818 87.0283 83 84.1632 83C81.298 83 78.9832 80.6818 78.9832 77.8125V62.25H76.3932Z" fill="black"/>
</svg>
