<svg width="110" height="98" viewBox="0 0 110 98" fill="none" xmlns="http://www.w3.org/2000/svg">
<g id="dog-solid 1" clip-path="url(#clip0_2_251)">
<path id="Vector" d="M59.1251 30.3379L63.5365 3.78984C63.8994 1.60781 65.79 0 68.0053 0C69.4376 0 70.7744 0.669922 71.6337 1.81836L74.8612 6.125H84.8108C87.2362 6.125 89.566 7.10117 91.2848 8.82383L94.7223 12.25H105.417C107.957 12.25 110 14.298 110 16.8438V21.4375C110 29.8977 103.163 36.75 94.7223 36.75H88.6112H85.5556H81.4879L80.514 42.5879L59.1251 30.3379ZM79.4445 49.0191V91.875C79.4445 95.2629 76.7136 98 73.3334 98H67.2223C63.8421 98 61.1112 95.2629 61.1112 91.875V69.825C56.5278 72.1793 51.3334 73.5 45.8334 73.5C40.3334 73.5 35.139 72.1793 30.5556 69.825V91.875C30.5556 95.2629 27.8247 98 24.4445 98H18.3334C14.9532 98 12.2223 95.2629 12.2223 91.875V47.8133C6.72229 45.727 2.40632 41.0566 0.916733 35.0848L0.191039 32.118C-0.630142 28.8449 1.35597 25.5145 4.64069 24.6914C7.92541 23.8684 11.2292 25.859 12.0504 29.1512L12.7952 32.118C13.4636 34.8359 15.9081 36.75 18.7153 36.75H24.4445H27.5001H58.0174L79.4445 49.0191ZM88.6112 15.3125C88.6112 14.5003 88.2893 13.7213 87.7162 13.147C87.1432 12.5727 86.366 12.25 85.5556 12.25C84.7452 12.25 83.968 12.5727 83.395 13.147C82.822 13.7213 82.5001 14.5003 82.5001 15.3125C82.5001 16.1247 82.822 16.9037 83.395 17.478C83.968 18.0523 84.7452 18.375 85.5556 18.375C86.366 18.375 87.1432 18.0523 87.7162 17.478C88.2893 16.9037 88.6112 16.1247 88.6112 15.3125Z" fill="black"/>
</g>
<defs>
<clipPath id="clip0_2_251">
<rect width="110" height="98" fill="white"/>
</clipPath>
</defs>
</svg>
