<svg width="103" height="82" viewBox="0 0 103 82" fill="none" xmlns="http://www.w3.org/2000/svg">
<g id="dumbbell-solid 1">
<path id="Vector" d="M15.45 10.25C15.45 7.41523 17.7514 5.125 20.6 5.125H25.75C28.5986 5.125 30.9 7.41523 30.9 10.25V35.875V46.125V71.75C30.9 74.5848 28.5986 76.875 25.75 76.875H20.6C17.7514 76.875 15.45 74.5848 15.45 71.75V61.5H10.3C7.45141 61.5 5.15 59.2098 5.15 56.375V46.125C2.30141 46.125 0 43.8348 0 41C0 38.1652 2.30141 35.875 5.15 35.875V25.625C5.15 22.7902 7.45141 20.5 10.3 20.5H15.45V10.25ZM87.55 10.25V20.5H92.7C95.5486 20.5 97.85 22.7902 97.85 25.625V35.875C100.699 35.875 103 38.1652 103 41C103 43.8348 100.699 46.125 97.85 46.125V56.375C97.85 59.2098 95.5486 61.5 92.7 61.5H87.55V71.75C87.55 74.5848 85.2486 76.875 82.4 76.875H77.25C74.4014 76.875 72.1 74.5848 72.1 71.75V46.125V35.875V10.25C72.1 7.41523 74.4014 5.125 77.25 5.125H82.4C85.2486 5.125 87.55 7.41523 87.55 10.25ZM66.95 35.875V46.125H36.05V35.875H66.95Z" fill="black"/>
</g>
</svg>
