<svg width="106" height="85" viewBox="0 0 106 85" fill="none" xmlns="http://www.w3.org/2000/svg">
<g id="hospital-solid 1" clip-path="url(#clip0_2_247)">
<path id="Vector" d="M31.8 7.96875C31.8 3.56934 35.3609 0 39.75 0H66.25C70.6391 0 74.2 3.56934 74.2 7.96875V85H60.95V71.7188C60.95 67.3193 57.3891 63.75 53 63.75C48.6109 63.75 45.05 67.3193 45.05 71.7188V85H31.8V7.96875ZM7.95 15.9375H26.5V85H7.95C3.56094 85 0 81.4307 0 77.0312V53.125H13.25C14.7075 53.125 15.9 51.9297 15.9 50.4688C15.9 49.0078 14.7075 47.8125 13.25 47.8125H0V37.1875H13.25C14.7075 37.1875 15.9 35.9922 15.9 34.5312C15.9 33.0703 14.7075 31.875 13.25 31.875H0V23.9062C0 19.5068 3.56094 15.9375 7.95 15.9375ZM98.05 15.9375C102.439 15.9375 106 19.5068 106 23.9062V31.875H92.75C91.2925 31.875 90.1 33.0703 90.1 34.5312C90.1 35.9922 91.2925 37.1875 92.75 37.1875H106V47.8125H92.75C91.2925 47.8125 90.1 49.0078 90.1 50.4688C90.1 51.9297 91.2925 53.125 92.75 53.125H106V77.0312C106 81.4307 102.439 85 98.05 85H79.5V15.9375H98.05ZM51.675 10.625C50.2175 10.625 49.025 11.8203 49.025 13.2812V17.2656H45.05C43.5925 17.2656 42.4 18.4609 42.4 19.9219V22.5781C42.4 24.0391 43.5925 25.2344 45.05 25.2344H49.025V29.2188C49.025 30.6797 50.2175 31.875 51.675 31.875H54.325C55.7825 31.875 56.975 30.6797 56.975 29.2188V25.2344H60.95C62.4075 25.2344 63.6 24.0391 63.6 22.5781V19.9219C63.6 18.4609 62.4075 17.2656 60.95 17.2656H56.975V13.2812C56.975 11.8203 55.7825 10.625 54.325 10.625H51.675Z" fill="black"/>
</g>
<defs>
<clipPath id="clip0_2_247">
<rect width="106" height="85" fill="white"/>
</clipPath>
</defs>
</svg>
