<svg width="93" height="93" viewBox="0 0 93 93" fill="none" xmlns="http://www.w3.org/2000/svg">
<g id="hotel-solid 1" clip-path="url(#clip0_2_255)">
<path id="Vector" d="M0 5.8125C0 2.59746 2.59746 0 5.8125 0H87.1875C90.4025 0 93 2.59746 93 5.8125C93 9.02754 90.4025 11.625 87.1875 11.625V81.375C90.4025 81.375 93 83.9725 93 87.1875C93 90.4025 90.4025 93 87.1875 93H55.2188V84.2812C55.2188 79.4678 51.3135 75.5625 46.5 75.5625C41.6865 75.5625 37.7812 79.4678 37.7812 84.2812V93H5.8125C2.59746 93 0 90.4025 0 87.1875C0 83.9725 2.59746 81.375 5.8125 81.375V11.625C2.59746 11.625 0 9.02754 0 5.8125ZM17.4375 20.3438V26.1562C17.4375 27.7547 18.7453 29.0625 20.3438 29.0625H26.1562C27.7547 29.0625 29.0625 27.7547 29.0625 26.1562V20.3438C29.0625 18.7453 27.7547 17.4375 26.1562 17.4375H20.3438C18.7453 17.4375 17.4375 18.7453 17.4375 20.3438ZM43.5938 17.4375C41.9953 17.4375 40.6875 18.7453 40.6875 20.3438V26.1562C40.6875 27.7547 41.9953 29.0625 43.5938 29.0625H49.4062C51.0047 29.0625 52.3125 27.7547 52.3125 26.1562V20.3438C52.3125 18.7453 51.0047 17.4375 49.4062 17.4375H43.5938ZM63.9375 20.3438V26.1562C63.9375 27.7547 65.2453 29.0625 66.8438 29.0625H72.6562C74.2547 29.0625 75.5625 27.7547 75.5625 26.1562V20.3438C75.5625 18.7453 74.2547 17.4375 72.6562 17.4375H66.8438C65.2453 17.4375 63.9375 18.7453 63.9375 20.3438ZM20.3438 34.875C18.7453 34.875 17.4375 36.1828 17.4375 37.7812V43.5938C17.4375 45.1922 18.7453 46.5 20.3438 46.5H26.1562C27.7547 46.5 29.0625 45.1922 29.0625 43.5938V37.7812C29.0625 36.1828 27.7547 34.875 26.1562 34.875H20.3438ZM40.6875 37.7812V43.5938C40.6875 45.1922 41.9953 46.5 43.5938 46.5H49.4062C51.0047 46.5 52.3125 45.1922 52.3125 43.5938V37.7812C52.3125 36.1828 51.0047 34.875 49.4062 34.875H43.5938C41.9953 34.875 40.6875 36.1828 40.6875 37.7812ZM66.8438 34.875C65.2453 34.875 63.9375 36.1828 63.9375 37.7812V43.5938C63.9375 45.1922 65.2453 46.5 66.8438 46.5H72.6562C74.2547 46.5 75.5625 45.1922 75.5625 43.5938V37.7812C75.5625 36.1828 74.2547 34.875 72.6562 34.875H66.8438ZM59.5781 69.75C61.9939 69.75 63.992 67.7701 63.3926 65.427C61.4672 57.8889 54.6375 52.3125 46.5 52.3125C38.3625 52.3125 31.5146 57.8889 29.6074 65.427C29.008 67.752 31.0242 69.75 33.4219 69.75H59.5781Z" fill="black"/>
</g>
<defs>
<clipPath id="clip0_2_255">
<rect width="93" height="93" fill="white"/>
</clipPath>
</defs>
</svg>
