<svg width="106" height="94" viewBox="0 0 106 94" fill="none" xmlns="http://www.w3.org/2000/svg">
<g id="school-flag-solid 1" clip-path="url(#clip0_2_235)">
<path id="Vector" d="M53 0H73.6111C75.2306 0 76.5556 1.32187 76.5556 2.9375V14.6875C76.5556 16.3031 75.2306 17.625 73.6111 17.625H59.0177L75.5066 29.375H94.2222C100.718 29.375 106 34.6441 106 41.125V82.25C106 88.7309 100.718 94 94.2222 94H61.8333V73.4375C61.8333 68.5723 57.8767 64.625 53 64.625C48.1233 64.625 44.1667 68.5723 44.1667 73.4375V94H11.7778C5.2816 94 0 88.7309 0 82.25V41.125C0 34.6441 5.2816 29.375 11.7778 29.375H30.4934L47.1111 17.5332V5.875C47.1111 2.62539 49.7427 0 53 0ZM61.8333 44.0625C61.8333 41.7253 60.9027 39.4838 59.2461 37.8311C57.5895 36.1785 55.3427 35.25 53 35.25C50.6573 35.25 48.4105 36.1785 46.7539 37.8311C45.0973 39.4838 44.1667 41.7253 44.1667 44.0625C44.1667 46.3997 45.0973 48.6412 46.7539 50.2939C48.4105 51.9465 50.6573 52.875 53 52.875C55.3427 52.875 57.5895 51.9465 59.2461 50.2939C60.9027 48.6412 61.8333 46.3997 61.8333 44.0625ZM14.7222 41.125C13.1028 41.125 11.7778 42.4469 11.7778 44.0625V55.8125C11.7778 57.4281 13.1028 58.75 14.7222 58.75H20.6111C22.2306 58.75 23.5556 57.4281 23.5556 55.8125V44.0625C23.5556 42.4469 22.2306 41.125 20.6111 41.125H14.7222ZM82.4444 44.0625V55.8125C82.4444 57.4281 83.7694 58.75 85.3889 58.75H91.2778C92.8972 58.75 94.2222 57.4281 94.2222 55.8125V44.0625C94.2222 42.4469 92.8972 41.125 91.2778 41.125H85.3889C83.7694 41.125 82.4444 42.4469 82.4444 44.0625ZM14.7222 64.625C13.1028 64.625 11.7778 65.9469 11.7778 67.5625V79.3125C11.7778 80.9281 13.1028 82.25 14.7222 82.25H20.6111C22.2306 82.25 23.5556 80.9281 23.5556 79.3125V67.5625C23.5556 65.9469 22.2306 64.625 20.6111 64.625H14.7222ZM85.3889 64.625C83.7694 64.625 82.4444 65.9469 82.4444 67.5625V79.3125C82.4444 80.9281 83.7694 82.25 85.3889 82.25H91.2778C92.8972 82.25 94.2222 80.9281 94.2222 79.3125V67.5625C94.2222 65.9469 92.8972 64.625 91.2778 64.625H85.3889Z" fill="black"/>
</g>
<defs>
<clipPath id="clip0_2_235">
<rect width="106" height="94" fill="white"/>
</clipPath>
</defs>
</svg>
