<svg width="116" height="103" viewBox="0 0 116 103" fill="none" xmlns="http://www.w3.org/2000/svg">
<g id="shop 1" clip-path="url(#clip0_1_186)">
<rect width="116" height="103" fill="white"/>
<path id="Vector" d="M51.0118 7.06129C52.2403 4.68746 51.3139 1.77047 48.9576 0.543321C46.6014 -0.683827 43.6611 0.241563 42.4326 2.59527L23.6833 38.6252H6.44444C2.87986 38.6252 0 41.5019 0 45.0627C0 48.6234 2.87986 51.5002 6.44444 51.5002L16.8965 93.2433C18.3264 98.9767 23.4819 103 29.4028 103H86.5972C92.5181 103 97.6736 98.9767 99.1035 93.2433L109.556 51.5002C113.12 51.5002 116 48.6234 116 45.0627C116 41.5019 113.12 38.6252 109.556 38.6252H92.3167L73.5674 2.59527C72.3389 0.241563 69.4188 -0.683827 67.0424 0.543321C64.666 1.77047 63.7597 4.68746 64.9882 7.06129L81.4215 38.6252H34.5785L51.0118 7.06129ZM38.6667 61.1564V80.4689C38.6667 82.2392 37.2167 83.6877 35.4444 83.6877C33.6722 83.6877 32.2222 82.2392 32.2222 80.4689V61.1564C32.2222 59.3861 33.6722 57.9377 35.4444 57.9377C37.2167 57.9377 38.6667 59.3861 38.6667 61.1564ZM58 57.9377C59.7722 57.9377 61.2222 59.3861 61.2222 61.1564V80.4689C61.2222 82.2392 59.7722 83.6877 58 83.6877C56.2278 83.6877 54.7778 82.2392 54.7778 80.4689V61.1564C54.7778 59.3861 56.2278 57.9377 58 57.9377ZM83.7778 61.1564V80.4689C83.7778 82.2392 82.3278 83.6877 80.5556 83.6877C78.7833 83.6877 77.3333 82.2392 77.3333 80.4689V61.1564C77.3333 59.3861 78.7833 57.9377 80.5556 57.9377C82.3278 57.9377 83.7778 59.3861 83.7778 61.1564Z" fill="black"/>
</g>
<defs>
<clipPath id="clip0_1_186">
<rect width="116" height="103" fill="white"/>
</clipPath>
</defs>
</svg>
